Coordinates
version=1
nRows=9
nColumns=36
inDegrees=yes

Units are S.I. units (second, meters, Newtons, ...)
If the header above contains a line with 'inDegrees', this indicates whether rotational values are in degrees (yes) or radians (no).

endheader
time	pelvis_tilt	pelvis_list	pelvis_rotation	pelvis_tx	pelvis_ty	pelvis_tz	hip_flexion_r	hip_adduction_r	hip_rotation_r	knee_angle_r	knee_angle_r_beta	ankle_angle_r	subtalar_angle_r	mtp_angle_r	hip_flexion_l	hip_adduction_l	hip_rotation_l	knee_angle_l	knee_angle_l_beta	ankle_angle_l	subtalar_angle_l	mtp_angle_l	lumbar_extension	lumbar_bending	lumbar_rotation	arm_flex_r	arm_add_r	arm_rot_r	elbow_flex_r	pro_sup_r	arm_flex_l	arm_add_l	arm_rot_l	elbow_flex_l	pro_sup_l
      3.16666670	      2.91922780	      1.45776831	      3.72360830	      0.35064079	      0.92827093	     -0.09096227	     -7.72659483	     -5.69641621	     -7.93064008	      0.73126090	      0.01276291	      4.77762721	    -12.73809330	     -7.49999987	     -4.84547876	     -1.59652401	      0.83798733	      0.85300497	      0.01488775	      1.18417228	     -8.00547894	     -7.49999987	     -6.66494260	     -2.46652038	     -2.55785743	      1.98207740	     -2.79713784	    -70.47677351	     93.37356100	     40.48923874	     -0.83281908	     -8.28371323	     -9.90148762	     97.29569748	     64.09180059
      3.18333330	      2.90678406	      1.45491446	      3.72584001	      0.35054542	      0.92542653	     -0.09046654	     -7.69645680	     -5.69079900	     -7.84287872	      0.72960983	      0.01273409	      4.70972882	    -12.78577265	     -7.49999987	     -4.81370844	     -1.60332330	      0.81166131	      0.85445935	      0.01491313	      1.22559328	     -7.83338703	     -7.49999987	     -6.62217142	     -2.48111370	     -2.76589126	      1.94501974	     -2.69180589	    -70.31036916	     93.26855142	     40.65706172	     -0.69521972	     -8.55260762	     -8.77537322	     97.30599309	     64.26843387
      3.20000000	      2.88151414	      1.48870014	      3.75576620	      0.35055445	      0.92810663	     -0.09104692	     -7.66395056	     -5.73759597	     -7.85319190	      0.71951054	      0.01255783	      4.60428685	    -12.70576679	     -7.49999987	     -4.78733965	     -1.56744971	      0.83714732	      0.80558412	      0.01406010	      1.09564456	     -7.66168014	     -7.49999987	     -6.56398227	     -2.51873317	     -2.85947964	      1.86613108	     -2.57804566	    -70.28313608	     92.98733113	     40.75931247	     -0.37741568	     -8.68649575	     -7.52360536	     96.87381638	     64.47181388
      3.21666670	      2.84209384	      1.50047157	      3.71547163	      0.35042412	      0.92813843	     -0.09058889	     -7.60012011	     -5.76986395	     -7.64000865	      0.70593232	      0.01232084	      4.26004508	    -12.90736789	     -7.49999987	     -4.77148419	     -1.54542278	      0.83624387	      0.75629756	      0.01319988	      1.11299779	     -7.54723302	     -7.49999987	     -6.46212116	     -2.54466274	     -2.94692718	      1.75416493	     -2.30236216	    -70.31317365	     93.04316574	     40.98598617	     -0.16586541	     -8.83243222	     -6.56367696	     96.65530963	     64.61388970
      3.23333330	      2.84271341	      1.50386794	      3.71957646	      0.34641875	      0.92767037	     -0.08622571	     -7.53376944	     -5.71955374	     -7.65128527	      0.71504753	      0.01247993	      4.33116988	    -12.94379442	     -7.49999987	     -4.72643412	     -1.57735804	      0.81680598	      0.74410732	      0.01298712	      0.94930919	     -7.47499621	     -7.49999987	     -6.56835452	     -2.67288006	     -3.15185404	      1.74906607	     -1.72965968	    -70.02843790	     93.06815753	     41.02028737	      0.12350981	     -9.04359458	     -6.28865295	     96.53988017	     64.63733704
      3.25000000	      2.89397067	      1.53396848	      3.79390893	      0.35039483	      0.92791797	     -0.09077383	     -7.62088308	     -5.74662595	     -7.77254886	      0.71859027	      0.01254177	      4.09405066	    -12.98272348	     -7.49999987	     -4.75031938	     -1.55565881	      0.83710712	      0.73352289	      0.01280239	      0.79576679	     -7.33977931	     -7.49999987	     -6.61082076	     -2.70800439	     -3.43007871	      1.50154988	     -1.31072567	    -69.81171854	     93.36864762	     41.12175152	      0.13037884	     -9.26150692	     -5.73429092	     96.43588606	     64.69237930
      3.26666670	      2.97090343	      1.55178850	      3.76488344	      0.35041772	      0.92766545	     -0.09117156	     -7.71889344	     -5.79739017	     -7.75006129	      0.73164104	      0.01276955	      3.88321110	    -13.20615534	     -7.49999987	     -4.85209854	     -1.52945377	      0.75518488	      0.70783596	      0.01235407	      0.80358277	     -7.21631937	     -7.49999987	     -6.62629412	     -2.70839664	     -3.31351063	      1.25844772	     -1.03455200	    -70.24090685	     93.46241761	     46.86699282	      0.34451922	     -9.37668875	     -4.78330210	     96.17935398	     63.42523586
      3.28333330	      2.98519002	      1.50739539	      3.67572590	      0.34614122	      0.92782874	     -0.08595515	     -7.65511877	     -5.71976945	     -7.68892807	      0.74096771	      0.01293233	      3.69525952	    -13.68303505	     -7.49999987	     -4.82077826	     -1.61550381	      0.75148770	      0.69696674	      0.01216436	      0.73355860	     -7.30269961	     -7.49999987	     -6.74266848	     -2.78078746	     -3.22187181	      0.82360272	     -0.30777082	    -69.87007312	     94.49105942	     43.02037678	      0.53619030	     -9.73769747	     -4.00938284	     96.32263165	     64.96828954
      3.30000000	      3.02130933	      1.47208906	      3.60460120	      0.34626864	      0.92763708	     -0.08636749	     -7.59586325	     -5.64773248	     -7.73284642	      0.75973524	      0.01325988	      3.55932813	    -13.83941390	     -7.49999987	     -4.80743210	     -1.70414150	      0.66779980	      0.70729412	      0.01234461	      0.64052376	     -7.13112227	     -7.49999987	     -6.80759311	     -2.83172822	     -3.38362346	      0.63343899	      0.52485149	    -68.58034766	     95.49084080	     43.82744091	      0.43981650	     -9.97756036	     -3.71394503	     96.57982984	     65.19348974
